# xmcd
# 
# Track frame offsets:
#	150
#	18403
#	37490
#	60095
#	78208
#	102758
#	122580
#	144658
#	163270
#	180518
#	203003
#
# Disc length: 2948 seconds
#
# Revision: 1
# Processed by: cddbd v1.4PL0 Copyright (c) Steve Scherf et al.
# Submitted via: Audio-CD-Archiv 2.10.441
#
DISCID=8b0b820b
DTITLE=Ray Charles - My World
DYEAR=1900
DGENRE=blues
TTITLE0=My World
TTITLE1=A Song For You
TTITLE2=None Of Us Are Free
TTITLE3=So Help Me God
TTITLE4=Let Me Take Over
TTITLE5=One Drop Of Love
TTITLE6=If I Could
TTITLE7=Love Has A Mind Of Its Own
TTITLE8=I'll Be There
TTITLE9=Still Crazy After All These Years
TTITLE10=More Love Than Ordinary (Bonus Track)
EXTD=
EXTT0=
EXTT1=
EXTT2=
EXTT3=
EXTT4=
EXTT5=
EXTT6=
EXTT7=
EXTT8=
EXTT9=
EXTT10=
PLAYORDER=
